# xmcd
#
# Track frame offsets:
#	150
#	15040
#	29150
#	44800
#	61767
#	76532
#	91022
#	105175
#	118780
#	132637
#	145965
#	158167
#	172590
#	185192
#	204160
#
# Disc length: 2960 seconds
#
# Revision: 1
# Processed by: cddbd v1.5.1PL2 Copyright (c) Steve Scherf et al.
# Submitted via: audiograbber 1.83.01
#
DISCID=b80b8e0f
DTITLE=Music Maestro - MM6202
DYEAR=1900
DGENRE=Karaoke
TTITLE0=Tritt, Travis - She's Going Home With Me
TTITLE1=Jackson, Alan - Who's Cheatin' Who
TTITLE2=McEntire, Reba - I'd Rather Ride Around With You
TTITLE3=Parnell, Leroy - Lucky Me, Lucky You
TTITLE4=Wiggins, John and Audrey - Somewhere In Love
TTITLE5=Kershaw, Sammy - Fit To Be Tied Down
TTITLE6=Cochran, Anita - I Could Love A Man Like That
TTITLE7=Walker, Clay - One, Two, I Love You
TTITLE8=Adkins, Trace - I Left Something Turned On At Home
TTITLE9=Bonamy, James - Swing, The
TTITLE10=Rimes, LeAnn - Cowboy's Sweetheart
TTITLE11=Tippin, Aaron - Door, A
TTITLE12=Evans, Sara - True Lies
TTITLE13=Loveless, Patty - Trouble With The Truth, The
TTITLE14=Travis, Randy - King Of The Road
EXTD=As Listed In KJ Pro
EXTT0=
EXTT1=
EXTT2=
EXTT3=
EXTT4=
EXTT5=
EXTT6=
EXTT7=
EXTT8=
EXTT9=
EXTT10=
EXTT11=
EXTT12=
EXTT13=
EXTT14=
PLAYORDER=
